<svg width="32" height="32" viewBox="0 0 32 32" fill="none" xmlns="http://www.w3.org/2000/svg">
<g clip-path="url(#clip0_437_250)">
<path d="M28.9062 10.75C29.375 11.0104 29.8021 11.3281 30.1875 11.7031C30.5729 12.0781 30.8958 12.4948 31.1562 12.9531C31.4167 13.4115 31.625 13.8958 31.7812 14.4062C31.9375 14.9167 32.0104 15.4479 32 16H30C30 15.4583 29.8958 14.9427 29.6875 14.4531C29.4792 13.9635 29.1927 13.5417 28.8281 13.1875C28.4635 12.8333 28.0365 12.5469 27.5469 12.3281C27.0573 12.1094 26.5417 12 26 12C25.4479 12 24.9323 12.1042 24.4531 12.3125C23.974 12.5208 23.5521 12.8073 23.1875 13.1719C22.8229 13.5365 22.5365 13.9635 22.3281 14.4531C22.1198 14.9427 22.0104 15.4583 22 16C22 16.9479 21.7865 17.849 21.3594 18.7031C20.9323 19.5573 20.3333 20.2656 19.5625 20.8281C20.2396 21.1719 20.849 21.5938 21.3906 22.0938C21.9323 22.5938 22.401 23.1562 22.7969 23.7812C23.1927 24.4062 23.4896 25.0729 23.6875 25.7812C23.8854 26.4896 23.9896 27.2292 24 28H22C22 27.1771 21.8438 26.401 21.5312 25.6719C21.2188 24.9427 20.7865 24.3073 20.2344 23.7656C19.6823 23.224 19.0469 22.7969 18.3281 22.4844C17.6094 22.1719 16.8333 22.0104 16 22C15.1771 22 14.401 22.1562 13.6719 22.4688C12.9427 22.7812 12.3073 23.2135 11.7656 23.7656C11.224 24.3177 10.7969 24.9531 10.4844 25.6719C10.1719 26.3906 10.0104 27.1667 10 28H8C8 27.2396 8.10417 26.5052 8.3125 25.7969C8.52083 25.0885 8.81771 24.4219 9.20312 23.7969C9.58854 23.1719 10.0521 22.6094 10.5938 22.1094C11.1354 21.6094 11.75 21.1823 12.4375 20.8281C11.6771 20.2656 11.0833 19.5573 10.6562 18.7031C10.2292 17.849 10.0104 16.9479 10 16C10 15.4583 9.89583 14.9427 9.6875 14.4531C9.47917 13.9635 9.19271 13.5417 8.82812 13.1875C8.46354 12.8333 8.03646 12.5469 7.54688 12.3281C7.05729 12.1094 6.54167 12 6 12C5.44792 12 4.93229 12.1042 4.45312 12.3125C3.97396 12.5208 3.55208 12.8073 3.1875 13.1719C2.82292 13.5365 2.53646 13.9635 2.32812 14.4531C2.11979 14.9427 2.01042 15.4583 2 16H0C0 15.4583 0.0729167 14.9323 0.21875 14.4219C0.364583 13.9115 0.567708 13.4271 0.828125 12.9688C1.08854 12.5104 1.41667 12.0938 1.8125 11.7188C2.20833 11.3438 2.63542 11.0208 3.09375 10.75C2.75 10.3854 2.48438 9.96354 2.29688 9.48438C2.10938 9.00521 2.01042 8.51042 2 8C2 7.45833 2.10417 6.94271 2.3125 6.45312C2.52083 5.96354 2.80729 5.54167 3.17188 5.1875C3.53646 4.83333 3.95833 4.54688 4.4375 4.32812C4.91667 4.10938 5.4375 4 6 4C6.54167 4 7.05729 4.10417 7.54688 4.3125C8.03646 4.52083 8.45833 4.80729 8.8125 5.17188C9.16667 5.53646 9.45312 5.96354 9.67188 6.45312C9.89062 6.94271 10 7.45833 10 8C10 8.51042 9.90625 9.00521 9.71875 9.48438C9.53125 9.96354 9.26042 10.3854 8.90625 10.75C9.76042 11.2188 10.4583 11.8646 11 12.6875C11.5625 11.8542 12.2812 11.1979 13.1562 10.7188C14.0312 10.2396 14.9792 10 16 10C17.0104 10 17.9531 10.2396 18.8281 10.7188C19.7031 11.1979 20.4271 11.8542 21 12.6875C21.5417 11.8646 22.2396 11.2188 23.0938 10.75C22.75 10.3854 22.4844 9.96354 22.2969 9.48438C22.1094 9.00521 22.0104 8.51042 22 8C22 7.45833 22.1042 6.94271 22.3125 6.45312C22.5208 5.96354 22.8073 5.54167 23.1719 5.1875C23.5365 4.83333 23.9583 4.54688 24.4375 4.32812C24.9167 4.10938 25.4375 4 26 4C26.5417 4 27.0573 4.10417 27.5469 4.3125C28.0365 4.52083 28.4583 4.80729 28.8125 5.17188C29.1667 5.53646 29.4531 5.96354 29.6719 6.45312C29.8906 6.94271 30 7.45833 30 8C30 8.51042 29.9062 9.00521 29.7188 9.48438C29.5312 9.96354 29.2604 10.3854 28.9062 10.75ZM4 8C4 8.28125 4.05208 8.54167 4.15625 8.78125C4.26042 9.02083 4.40104 9.22917 4.57812 9.40625C4.75521 9.58333 4.96875 9.72917 5.21875 9.84375C5.46875 9.95833 5.72917 10.0104 6 10C6.28125 10 6.54167 9.94792 6.78125 9.84375C7.02083 9.73958 7.22917 9.59896 7.40625 9.42188C7.58333 9.24479 7.72917 9.03125 7.84375 8.78125C7.95833 8.53125 8.01042 8.27083 8 8C8 7.71875 7.94792 7.45833 7.84375 7.21875C7.73958 6.97917 7.59896 6.77083 7.42188 6.59375C7.24479 6.41667 7.03125 6.27083 6.78125 6.15625C6.53125 6.04167 6.27083 5.98958 6 6C5.71875 6 5.45833 6.05208 5.21875 6.15625C4.97917 6.26042 4.77083 6.40104 4.59375 6.57812C4.41667 6.75521 4.27083 6.96875 4.15625 7.21875C4.04167 7.46875 3.98958 7.72917 4 8ZM16 20C16.5417 20 17.0573 19.8958 17.5469 19.6875C18.0365 19.4792 18.4583 19.1927 18.8125 18.8281C19.1667 18.4635 19.4531 18.0417 19.6719 17.5625C19.8906 17.0833 20 16.5625 20 16C20 15.4583 19.8958 14.9427 19.6875 14.4531C19.4792 13.9635 19.1927 13.5417 18.8281 13.1875C18.4635 12.8333 18.0365 12.5469 17.5469 12.3281C17.0573 12.1094 16.5417 12 16 12C15.4479 12 14.9323 12.1042 14.4531 12.3125C13.974 12.5208 13.5521 12.8073 13.1875 13.1719C12.8229 13.5365 12.5365 13.9635 12.3281 14.4531C12.1198 14.9427 12.0104 15.4583 12 16C12 16.5521 12.1042 17.0677 12.3125 17.5469C12.5208 18.026 12.8073 18.4479 13.1719 18.8125C13.5365 19.1771 13.9583 19.4635 14.4375 19.6719C14.9167 19.8802 15.4375 19.9896 16 20ZM24 8C24 8.28125 24.0521 8.54167 24.1562 8.78125C24.2604 9.02083 24.401 9.22917 24.5781 9.40625C24.7552 9.58333 24.9688 9.72917 25.2188 9.84375C25.4688 9.95833 25.7292 10.0104 26 10C26.2812 10 26.5417 9.94792 26.7812 9.84375C27.0208 9.73958 27.2292 9.59896 27.4062 9.42188C27.5833 9.24479 27.7292 9.03125 27.8438 8.78125C27.9583 8.53125 28.0104 8.27083 28 8C28 7.71875 27.9479 7.45833 27.8438 7.21875C27.7396 6.97917 27.599 6.77083 27.4219 6.59375C27.2448 6.41667 27.0312 6.27083 26.7812 6.15625C26.5312 6.04167 26.2708 5.98958 26 6C25.7188 6 25.4583 6.05208 25.2188 6.15625C24.9792 6.26042 24.7708 6.40104 24.5938 6.57812C24.4167 6.75521 24.2708 6.96875 24.1562 7.21875C24.0417 7.46875 23.9896 7.72917 24 8Z" fill="white"/>
</g>
<defs>
<clipPath id="clip0_437_250">
<rect width="32" height="32" fill="white"/>
</clipPath>
</defs>
</svg>
