<svg width="32" height="32" viewBox="0 0 32 32" fill="none" xmlns="http://www.w3.org/2000/svg">
<path d="M11.1802 26.6667V25.3334H15.3335V20.328C14.1593 20.1183 13.1317 19.6272 12.2508 18.8547C11.3699 18.0823 10.7633 17.1263 10.4308 15.9867C9.02105 15.8205 7.81883 15.2423 6.82416 14.252C5.8295 13.2618 5.33261 12.0667 5.3335 10.6667V9.33337C5.3335 8.97604 5.46639 8.66448 5.73216 8.39871C5.99794 8.13293 6.3095 8.00004 6.66683 8.00004H10.2055V5.33337H21.7948V8.00004H25.3335C25.6908 8.00004 26.0024 8.13293 26.2682 8.39871C26.5339 8.66448 26.6668 8.97604 26.6668 9.33337V10.6667C26.6668 12.0649 26.1699 13.2596 25.1762 14.2507C24.1824 15.2418 22.9802 15.8196 21.5695 15.984C21.2379 17.1263 20.6317 18.0832 19.7508 18.8547C18.8699 19.6263 17.8419 20.1174 16.6668 20.328V25.3334H20.8202V26.6667H11.1802ZM10.2055 14.5547V9.33337H6.66683V10.6667C6.66683 11.6818 7.0055 12.5543 7.68283 13.284C8.36016 14.0138 9.20105 14.4374 10.2055 14.5547ZM19.1282 17.744C19.9833 16.8889 20.4108 15.8463 20.4108 14.616V6.66671H11.5895V14.616C11.5895 15.8463 12.0171 16.8889 12.8722 17.744C13.7264 18.5983 14.7691 19.0254 16.0002 19.0254C17.2313 19.0254 18.2739 18.5983 19.1282 17.744ZM21.7948 14.5534C22.8002 14.436 23.6411 14.0125 24.3175 13.2827C24.9939 12.5529 25.3326 11.6809 25.3335 10.6667V9.33337H21.7948V14.5534Z" fill="white"/>
</svg>
