<svg width="32" height="32" viewBox="0 0 32 32" fill="none" xmlns="http://www.w3.org/2000/svg">
<path d="M22.6667 18.6667C23.0203 18.6667 23.3594 18.5262 23.6095 18.2761C23.8595 18.0261 24 17.687 24 17.3333C24 16.9797 23.8595 16.6406 23.6095 16.3905C23.3594 16.1405 23.0203 16 22.6667 16C22.313 16 21.9739 16.1405 21.7239 16.3905C21.4738 16.6406 21.3333 16.9797 21.3333 17.3333C21.3333 17.687 21.4738 18.0261 21.7239 18.2761C21.9739 18.5262 22.313 18.6667 22.6667 18.6667ZM22.6667 24C23.0203 24 23.3594 23.8595 23.6095 23.6095C23.8595 23.3594 24 23.0203 24 22.6667C24 22.313 23.8595 21.9739 23.6095 21.7239C23.3594 21.4738 23.0203 21.3333 22.6667 21.3333C22.313 21.3333 21.9739 21.4738 21.7239 21.7239C21.4738 21.9739 21.3333 22.313 21.3333 22.6667C21.3333 23.0203 21.4738 23.3594 21.7239 23.6095C21.9739 23.8595 22.313 24 22.6667 24ZM17.3333 17.3333C17.3333 17.687 17.1929 18.0261 16.9428 18.2761C16.6928 18.5262 16.3536 18.6667 16 18.6667C15.6464 18.6667 15.3072 18.5262 15.0572 18.2761C14.8071 18.0261 14.6667 17.687 14.6667 17.3333C14.6667 16.9797 14.8071 16.6406 15.0572 16.3905C15.3072 16.1405 15.6464 16 16 16C16.3536 16 16.6928 16.1405 16.9428 16.3905C17.1929 16.6406 17.3333 16.9797 17.3333 17.3333ZM17.3333 22.6667C17.3333 23.0203 17.1929 23.3594 16.9428 23.6095C16.6928 23.8595 16.3536 24 16 24C15.6464 24 15.3072 23.8595 15.0572 23.6095C14.8071 23.3594 14.6667 23.0203 14.6667 22.6667C14.6667 22.313 14.8071 21.9739 15.0572 21.7239C15.3072 21.4738 15.6464 21.3333 16 21.3333C16.3536 21.3333 16.6928 21.4738 16.9428 21.7239C17.1929 21.9739 17.3333 22.313 17.3333 22.6667ZM9.33333 18.6667C9.68696 18.6667 10.0261 18.5262 10.2761 18.2761C10.5262 18.0261 10.6667 17.687 10.6667 17.3333C10.6667 16.9797 10.5262 16.6406 10.2761 16.3905C10.0261 16.1405 9.68696 16 9.33333 16C8.97971 16 8.64057 16.1405 8.39052 16.3905C8.14048 16.6406 8 16.9797 8 17.3333C8 17.687 8.14048 18.0261 8.39052 18.2761C8.64057 18.5262 8.97971 18.6667 9.33333 18.6667ZM9.33333 24C9.68696 24 10.0261 23.8595 10.2761 23.6095C10.5262 23.3594 10.6667 23.0203 10.6667 22.6667C10.6667 22.313 10.5262 21.9739 10.2761 21.7239C10.0261 21.4738 9.68696 21.3333 9.33333 21.3333C8.97971 21.3333 8.64057 21.4738 8.39052 21.7239C8.14048 21.9739 8 22.313 8 22.6667C8 23.0203 8.14048 23.3594 8.39052 23.6095C8.64057 23.8595 8.97971 24 9.33333 24Z" fill="black"/>
<path fill-rule="evenodd" clip-rule="evenodd" d="M9.3333 2.33325C9.59852 2.33325 9.85287 2.43861 10.0404 2.62615C10.2279 2.81368 10.3333 3.06804 10.3333 3.33325V4.35059C11.216 4.33325 12.188 4.33325 13.2573 4.33325H18.7413C19.812 4.33325 20.784 4.33325 21.6666 4.35059V3.33325C21.6666 3.06804 21.772 2.81368 21.9595 2.62615C22.1471 2.43861 22.4014 2.33325 22.6666 2.33325C22.9319 2.33325 23.1862 2.43861 23.3737 2.62615C23.5613 2.81368 23.6666 3.06804 23.6666 3.33325V4.43592C24.0133 4.46259 24.3418 4.49636 24.652 4.53725C26.2146 4.74792 27.48 5.19059 28.4786 6.18792C29.476 7.18658 29.9186 8.45192 30.1293 10.0146C30.3333 11.5346 30.3333 13.4746 30.3333 15.9253V18.7413C30.3333 21.1919 30.3333 23.1333 30.1293 24.6519C29.9186 26.2146 29.476 27.4799 28.4786 28.4786C27.48 29.4759 26.2146 29.9186 24.652 30.1293C23.132 30.3333 21.192 30.3333 18.7413 30.3333H13.26C10.8093 30.3333 8.86797 30.3333 7.3493 30.1293C5.78664 29.9186 4.5213 29.4759 3.52264 28.4786C2.5253 27.4799 2.08264 26.2146 1.87197 24.6519C1.66797 23.1319 1.66797 21.1919 1.66797 18.7413V15.9253C1.66797 13.4746 1.66797 11.5333 1.87197 10.0146C2.08264 8.45192 2.5253 7.18658 3.52264 6.18792C4.5213 5.19059 5.78664 4.74792 7.3493 4.53725C7.66041 4.49636 7.98886 4.46259 8.33464 4.43592V3.33325C8.33464 3.06827 8.43981 2.81411 8.62706 2.62662C8.81431 2.43912 9.06832 2.33361 9.3333 2.33325ZM7.6133 6.51992C6.2733 6.69992 5.49997 7.03859 4.93597 7.60259C4.37197 8.16659 4.0333 8.93992 3.8533 10.2799C3.82308 10.5066 3.7973 10.7461 3.77597 10.9986H28.224C28.2026 10.7461 28.1769 10.5061 28.1466 10.2786C27.9666 8.93859 27.628 8.16525 27.064 7.60125C26.5 7.03725 25.7266 6.69859 24.3853 6.51859C23.016 6.33459 21.2093 6.33192 18.6666 6.33192H13.3333C10.7906 6.33192 8.9853 6.33592 7.6133 6.51992ZM3.66664 15.9999C3.66664 14.8613 3.66664 13.8706 3.68397 12.9999H28.316C28.3333 13.8706 28.3333 14.8613 28.3333 15.9999V18.6666C28.3333 21.2093 28.3306 23.0159 28.1466 24.3866C27.9666 25.7266 27.628 26.4999 27.064 27.0639C26.5 27.6279 25.7266 27.9666 24.3853 28.1466C23.016 28.3306 21.2093 28.3333 18.6666 28.3333H13.3333C10.7906 28.3333 8.9853 28.3306 7.6133 28.1466C6.2733 27.9666 5.49997 27.6279 4.93597 27.0639C4.37197 26.4999 4.0333 25.7266 3.8533 24.3853C3.6693 23.0159 3.66664 21.2093 3.66664 18.6666V15.9999Z" fill="black"/>
</svg>
