<svg width="178" height="163" viewBox="0 0 178 163" fill="none" xmlns="http://www.w3.org/2000/svg">
<path d="M119.557 0.490896C121.194 0.948932 122.725 1.72512 124.062 2.77508C125.399 3.82505 126.516 5.12821 127.349 6.61008C128.182 8.09194 128.715 9.72346 128.917 11.4114C129.119 13.0993 128.987 14.8105 128.527 16.4471L90.3096 152.61C89.3832 155.914 87.1821 158.715 84.1905 160.397C81.1989 162.078 77.662 162.502 74.3577 161.576C71.0534 160.649 68.2525 158.448 66.5711 155.457C64.8897 152.465 64.4656 148.928 65.392 145.624L103.609 9.44365C104.068 7.80733 104.845 6.27746 105.896 4.94145C106.946 3.60543 108.249 2.48945 109.731 1.65726C111.213 0.825068 112.844 0.292968 114.531 0.0913591C116.219 -0.110249 117.93 0.0225847 119.566 0.482271L119.557 0.490896ZM58.6645 35.2928C61.0873 37.7186 62.4481 41.0068 62.4481 44.4353C62.4481 47.8637 61.0873 51.152 58.6645 53.5778L31.237 81.0312L58.6817 108.476C61.1076 110.903 62.47 114.194 62.4692 117.626C62.4684 121.057 61.1045 124.348 58.6774 126.774C56.2504 129.2 52.9591 130.562 49.5276 130.561C46.096 130.561 42.8054 129.197 40.3795 126.77L3.78362 90.1737C1.36085 87.7479 0 84.4596 0 81.0312C0 77.6027 1.36085 74.3144 3.78362 71.8886L40.3709 35.2928C41.5723 34.0905 42.9989 33.1368 44.5691 32.4861C46.1393 31.8355 47.8223 31.5005 49.522 31.5005C51.2217 31.5005 52.9047 31.8355 54.4749 32.4861C56.0451 33.1368 57.463 34.0905 58.6645 35.2928ZM135.255 53.5778C133.983 52.3934 132.964 50.965 132.257 49.3781C131.55 47.7911 131.169 46.0779 131.139 44.3408C131.108 42.6037 131.428 40.8782 132.078 39.2672C132.729 37.6563 133.698 36.1929 134.926 34.9644C136.155 33.7358 137.618 32.7673 139.229 32.1167C140.84 31.466 142.565 31.1464 144.302 31.1771C146.04 31.2077 147.753 31.5879 149.34 32.2951C150.927 33.0022 152.355 34.0217 153.539 35.2928L190.135 71.88C192.561 74.3062 193.923 77.5963 193.923 81.0268C193.923 84.4574 192.561 87.7475 190.135 90.1737L153.548 126.77C152.347 127.971 150.921 128.925 149.351 129.575C147.782 130.226 146.099 130.561 144.4 130.561C142.701 130.562 141.018 130.227 139.448 129.578C137.878 128.928 136.452 127.975 135.25 126.774C134.048 125.573 133.095 124.147 132.444 122.577C131.794 121.007 131.459 119.325 131.458 117.626C131.458 115.927 131.792 114.244 132.442 112.674C133.092 111.104 134.045 109.678 135.246 108.476L162.691 81.0312L135.255 53.5778Z" fill="white" fill-opacity="0.4"/>
</svg>
