<svg width="140" height="176" viewBox="0 0 140 176" fill="none" xmlns="http://www.w3.org/2000/svg">
<path d="M206.852 68.9637L204.082 43.0382L215.237 32.3108L201.397 4.09063L186.077 6.29626L167.27 -11.787L168.869 -27.1707L140.093 -39.9143L129.778 -28.4035L103.749 -30.1821L95.1043 -43L64.8555 -34.2926L64.3721 -18.8457L43.2704 -3.488L28.397 -7.75815L10.839 18.3604L20.41 30.5025L14.1297 55.8116L0 62.0869L3.34652 93.3482L18.4988 96.5044L29.9773 119.923L23.1839 133.807L45.8659 155.611L59.5048 148.307L83.3468 158.856L87.0652 173.854L118.474 176L124.219 161.652L149.307 154.426L161.819 163.52L187.26 145.006L182.426 130.324L196.991 108.687L212.429 107.618L220 77.1067L206.852 68.9637ZM109.993 132.994C72.5636 132.994 42.2219 103.225 42.2219 66.5056C42.2219 29.7859 72.5636 0.0172501 109.993 0.0172501C147.421 0.0172501 177.767 29.7859 177.767 66.5056C177.767 103.225 147.421 132.994 109.993 132.994Z" fill="white" fill-opacity="0.4"/>
</svg>
