<svg width="142" height="175" viewBox="0 0 142 175" fill="none" xmlns="http://www.w3.org/2000/svg">
<path d="M100 74.9917C100.866 77.5341 102.504 79.7432 104.685 81.3115C106.865 82.8798 109.481 83.7293 112.167 83.7417C114.133 83.7667 116.083 83.3083 117.833 82.4083C116.833 84.075 116.325 85.975 116.333 87.9083C116.3 92.4083 119.35 96.6417 123.583 98.1583C124.2 98.3528 124.878 98.5389 125.617 98.7167C128.617 99.4667 132.2 100.383 133.167 103.325L133.283 103.7C135.25 109.942 137.5 117.083 145.5 117.083C147.258 117.083 148.742 116.733 150 116.125V147.917C150 155.1 147.147 161.988 142.067 167.067C136.988 172.147 130.1 175 122.917 175H27.0833C19.9004 175 13.0116 172.147 7.93252 167.067C2.85341 161.988 0 155.1 0 147.917V70.8333H98.8333L100 74.9917ZM110.667 93.4917C109.495 92.3212 107.906 91.6638 106.25 91.6638C104.594 91.6638 103.005 92.3212 101.833 93.4917L64.5833 130.742L48.1667 114.325L47.7 113.9C46.4577 112.885 44.8726 112.386 43.2728 112.507C41.673 112.628 40.181 113.36 39.1058 114.551C38.0306 115.742 37.4546 117.3 37.4969 118.904C37.5393 120.508 38.1968 122.034 39.3333 123.167L60.1667 144C61.3386 145.17 62.9271 145.828 64.5833 145.828C66.2396 145.828 67.8281 145.17 69 144L110.667 102.333C111.837 101.161 112.495 99.5729 112.495 97.9167C112.495 96.2604 111.837 94.6719 110.667 93.5M145.7 66.6667C146.221 66.6635 146.73 66.8233 147.156 67.1236C147.582 67.4239 147.903 67.8498 148.075 68.3417L150.158 74.725C150.806 76.6619 151.895 78.4217 153.34 79.8651C154.785 81.3085 156.546 82.396 158.483 83.0417L164.858 85.1083L164.983 85.1417C165.349 85.2737 165.68 85.4882 165.949 85.7685C166.219 86.0488 166.42 86.3874 166.538 86.7581C166.655 87.1287 166.686 87.5215 166.628 87.9059C166.569 88.2904 166.423 88.6562 166.2 88.975C165.9 89.3997 165.474 89.7201 164.983 89.8917L158.608 91.9583C156.671 92.604 154.91 93.6915 153.465 95.1349C152.02 96.5783 150.931 98.3381 150.283 100.275L148.208 106.658C148.032 107.147 147.709 107.569 147.284 107.867C146.859 108.166 146.353 108.326 145.833 108.326C145.314 108.326 144.807 108.166 144.382 107.867C143.957 107.569 143.635 107.147 143.458 106.658L141.375 100.275C140.733 98.3328 139.647 96.567 138.203 95.1176C136.759 93.6682 134.998 92.5751 133.058 91.925L126.683 89.8583C126.318 89.7263 125.987 89.5118 125.718 89.2315C125.448 88.9512 125.247 88.6126 125.129 88.2419C125.011 87.8713 124.981 87.4785 125.039 87.0941C125.098 86.7096 125.244 86.3438 125.467 86.025C125.767 85.6003 126.192 85.2799 126.683 85.1083L133.058 83.0417C134.973 82.3796 136.709 81.2848 138.131 79.8423C139.553 78.3998 140.623 76.6486 141.258 74.725L143.333 68.3333C143.506 67.8444 143.827 67.4212 144.251 67.1226C144.675 66.824 145.181 66.6647 145.7 66.6667ZM112.275 0C113.211 0.00294432 114.124 0.295168 114.887 0.836671C115.651 1.37817 116.229 2.14249 116.542 3.025L120.283 14.4917C121.445 17.9793 123.403 21.1483 126.002 23.7476C128.602 26.3469 131.771 28.305 135.258 29.4667L146.742 33.1917L146.975 33.25C147.857 33.5688 148.62 34.1504 149.161 34.9163C149.702 35.6823 149.994 36.5957 150 37.5333C150.005 38.4725 149.716 39.3896 149.173 40.1562C148.631 40.9228 147.862 41.5005 146.975 41.8083L135.492 45.5333C132.002 46.6919 128.83 48.6478 126.228 51.2457C123.626 53.8436 121.664 57.0121 120.5 60.5L116.775 71.9667L116.667 72.25C116.305 73.0878 115.699 73.7971 114.928 74.2855C114.157 74.7739 113.257 75.0188 112.345 74.9882C111.433 74.9577 110.551 74.653 109.815 74.1141C109.079 73.5751 108.522 72.8268 108.217 71.9667L104.5 60.5C103.345 57.0007 101.389 53.8194 98.7881 51.2095C96.1869 48.5995 93.0121 46.633 89.5167 45.4667L78.0333 41.7417C77.1513 41.4247 76.3876 40.845 75.8452 40.0806C75.3028 39.3162 75.0079 38.4039 75 37.4667C74.9951 36.5275 75.2841 35.6104 75.8266 34.8438C76.369 34.0772 77.1377 33.4995 78.025 33.1917L89.5083 29.4667C92.9073 28.2924 95.9939 26.359 98.5338 23.8133C101.074 21.2676 103 18.1766 104.167 14.775L104.267 14.4917L107.992 3.025C108.31 2.14317 108.892 1.38034 109.658 0.839424C110.424 0.298503 111.337 0.00551943 112.275 0ZM75.3917 25C72.8553 25.896 70.6568 27.5521 69.0955 29.7426C67.5342 31.9332 66.6861 34.5517 66.6667 37.2417C66.6833 42.5333 70.1333 47.8833 75 49.9917L86.6667 53.825C89.2917 54.7167 91.85 56.2667 93.7833 58.3333H0V52.0833C0 44.9004 2.85341 38.0116 7.93252 32.9325C13.0116 27.8534 19.9004 25 27.0833 25H75.3917Z" fill="white" fill-opacity="0.4"/>
</svg>
